<?xml version="1.0" standalone="no"?>
<!DOCTYPE svg PUBLIC "-//W3C//DTD SVG 20010904//EN"
 "http://www.w3.org/TR/2001/REC-SVG-20010904/DTD/svg10.dtd">
<svg version="1.0" xmlns="http://www.w3.org/2000/svg"
 width="514.000000pt" height="514.000000pt" viewBox="0 0 514.000000 514.000000"
 preserveAspectRatio="xMidYMid meet">
<metadata>
Created by potrace 1.11, written by Peter Selinger 2001-2013
</metadata>
<g transform="translate(0.000000,514.000000) scale(0.100000,-0.100000)"
fill="#000000" stroke="none">
<path d="M2378 5125 c-1 -2 -34 -6 -73 -9 -119 -9 -335 -48 -421 -77 -17 -5
-40 -11 -50 -13 -130 -27 -503 -201 -669 -312 -541 -361 -914 -895 -1060
-1519 -25 -105 -27 -118 -47 -255 -13 -94 -17 -473 -5 -560 4 -30 9 -71 12
-90 28 -227 121 -527 230 -750 225 -456 606 -851 1058 -1095 214 -115 502
-219 712 -256 28 -4 61 -10 75 -13 164 -30 468 -40 665 -22 285 27 582 113
873 252 l94 45 61 -20 c34 -11 148 -47 252 -80 105 -33 298 -94 430 -136 132
-43 282 -90 333 -106 214 -67 285 -89 288 -89 20 0 2 58 -262 835 -47 138
-104 304 -126 370 l-41 121 67 125 c56 107 137 288 152 339 2 8 20 68 39 133
19 65 37 128 39 140 17 83 25 127 30 162 4 23 9 52 11 65 24 121 24 482 0 650
-21 149 -42 249 -82 380 -219 725 -739 1302 -1435 1594 -238 100 -456 154
-738 185 -72 8 -405 13 -412 6z m457 -410 c400 -63 738 -208 1039 -445 224
-177 443 -447 577 -713 100 -197 186 -496 206 -717 44 -487 -79 -967 -353
-1374 -18 -28 -34 -56 -34 -63 0 -11 51 -165 213 -640 25 -73 43 -133 41 -133
-2 0 -23 6 -46 14 -24 8 -117 37 -208 66 -91 28 -248 78 -348 111 -101 32
-191 59 -199 59 -9 0 -42 -16 -74 -36 -245 -148 -554 -254 -854 -291 -77 -10
-389 -10 -481 -1 -112 12 -308 56 -434 98 -477 160 -894 498 -1152 937 -64
107 -77 132 -118 228 -64 146 -130 382 -147 525 -3 25 -9 64 -13 88 -4 24 -6
129 -4 235 3 181 5 208 18 282 3 17 8 48 11 70 4 22 11 58 17 80 5 22 12 49
14 60 2 11 19 68 39 127 146 446 441 829 852 1106 34 23 65 42 68 42 3 0 29
15 58 33 29 19 55 34 59 35 5 1 45 19 90 40 132 61 293 117 391 137 15 3 39 7
55 10 15 3 33 8 40 10 8 3 37 8 65 11 29 4 72 10 97 14 51 9 454 5 515 -5z"/>
<path d="M2675 3942 c-22 -7 -43 -18 -47 -25 -4 -7 -8 -7 -9 -2 0 6 -4 1 -9
-10 -5 -11 -9 -442 -9 -957 l-1 -938 -75 0 -75 0 0 675 c0 436 -4 680 -10 688
-6 7 -19 23 -29 37 l-19 25 -185 0 c-196 0 -230 -7 -241 -49 -3 -11 -6 -326
-6 -698 l0 -678 -75 0 -75 0 0 421 c0 358 -2 423 -15 435 -8 8 -19 23 -24 32
-9 15 -31 17 -203 17 -189 0 -193 0 -217 -24 -12 -12 -25 -30 -26 -40 -2 -9
-4 -202 -4 -428 l-1 -413 -134 0 -133 0 -27 -32 c-24 -29 -27 -40 -24 -88 3
-42 10 -62 30 -82 l25 -28 1466 0 1466 0 21 22 c11 12 20 28 20 35 0 7 5 13
10 13 14 0 12 88 -2 106 -46 56 -40 54 -178 54 l-130 0 0 870 c0 573 -3 870
-10 870 -5 0 -10 6 -10 13 0 7 -12 23 -26 36 -24 21 -34 22 -204 22 l-178 0
-28 -28 -29 -28 -3 -877 -2 -878 -75 0 -75 0 0 936 c0 621 -3 933 -10 929 -5
-3 -10 2 -10 13 0 26 -31 52 -62 52 -13 0 -28 3 -32 8 -13 13 -258 8 -301 -6z"/>
</g>
</svg>
